<svg fill="none" height="512" viewBox="0 0 24 24" width="512" xmlns="http://www.w3.org/2000/svg"><path d="m7.62095 6.20695c1.19032-.95237 2.63545-1.70695 4.37885-1.70695 4.1421 0 7.5 3.35786 7.5 7.5 0 4.1421-3.3579 7.5-7.5 7.5-3.25492 0-6.02805-2.0746-7.06465-4.9744-.1859-.5201-.71038-.8688-1.25067-.7543l-.97827.2074c-.54029.1145-.89007.6475-.72437 1.1744 1.33923 4.2581 5.31636 7.3469 10.01796 7.3469 5.7989 0 10.5-4.701 10.5-10.5 0-5.79899-4.7011-10.5-10.5-10.5-2.78353 0-4.95165 1.26845-6.51123 2.57458l-1.78168-1.78169c-.286-.286-.71612-.37155-1.08979-.21677-.37368.15478-.61732.51942-.61732.92388v5.5c0 .55228.44772 1 1 1h5.5c.40446 0 .7691-.24364.92388-.61732.15478-.37367.06923-.80379-.21677-1.08979z" fill="currentColor"/></svg>
