<svg viewBox="0 0 500 500" fill="none" xmlns="http://www.w3.org/2000/svg">
<rect width="500" height="500" rx="32" fill="#FFFBDD"/>
<path d="M239.382 92.1243C171.586 84.9148 140.793 154.702 129.053 194.146C117.313 233.59 63.7268 255.107 80.178 334.154C96.6292 413.201 234.395 415.958 288.016 330.351C341.637 244.745 362.314 105.197 239.382 92.1243Z" fill="#C3996C"/>
<path d="M288.016 330.352C312.394 291.432 329.961 241.365 330.321 197.101C235.593 310.87 121.606 302.974 77.6526 294.553C76.4528 305.999 77.0285 319.019 80.1786 334.154C96.6295 413.201 234.395 415.958 288.016 330.352Z" fill="#B77D5B"/>
<path d="M243.11 368.406C243.11 368.406 291.975 406.446 327.285 408.624C362.594 410.803 374.911 404.719 399.432 387.675C423.954 370.631 429.395 317.06 425.189 302.212C420.983 287.365 404.986 246.167 366.26 215.625L243.11 368.406Z" fill="#C3996C"/>
<path d="M329.854 312.113C363.885 269.9 380.31 226.681 366.542 215.581C352.773 204.481 314.024 229.704 279.994 271.917C245.963 314.13 229.538 357.348 243.306 368.448C257.075 379.548 295.824 354.326 329.854 312.113Z" fill="#E9DEB0"/>
<path d="M170.494 122.799C171.851 122.799 173.209 122.277 174.239 121.236C175.218 120.247 176.222 119.272 177.226 118.34C179.356 116.358 179.476 113.024 177.495 110.894C175.513 108.764 172.181 108.646 170.049 110.624C168.939 111.657 167.829 112.734 166.749 113.826C164.703 115.894 164.721 119.23 166.789 121.276C167.816 122.292 169.155 122.799 170.494 122.799Z" fill="#050405"/>
<path d="M107.178 291.559C105.447 289.226 102.153 288.733 99.8164 290.463C97.4773 292.193 96.9827 295.491 98.7129 297.831C99.2642 298.577 104.31 305.207 111.395 308.02C112.034 308.274 112.691 308.394 113.338 308.394C115.433 308.394 117.415 307.134 118.236 305.069C119.31 302.364 117.988 299.302 115.284 298.228C111.654 296.787 108.205 292.929 107.178 291.559Z" fill="#050405"/>
<path d="M157.24 240.849C155.471 243.159 155.909 246.465 158.219 248.235C158.531 248.474 165.97 254.137 174.561 257.649C175.214 257.915 175.889 258.042 176.553 258.042C178.629 258.042 180.597 256.807 181.431 254.766C182.532 252.073 181.242 248.997 178.548 247.896C171.292 244.93 164.688 239.918 164.622 239.867C162.313 238.104 159.009 238.541 157.24 240.849Z" fill="#050405"/>
<path d="M170.678 170.349C168.879 172.636 169.275 175.947 171.561 177.747C171.735 177.883 175.903 181.132 184.436 185.151C185.162 185.492 185.926 185.653 186.678 185.653C188.654 185.653 190.549 184.535 191.448 182.629C192.686 179.997 191.557 176.858 188.926 175.618C181.626 172.182 178.114 169.495 178.06 169.453C175.775 167.671 172.474 168.068 170.678 170.349Z" fill="#050405"/>
<path d="M238.369 127.299C239.095 127.64 239.858 127.801 240.61 127.801C242.587 127.801 244.482 126.683 245.38 124.777C246.619 122.145 245.49 119.006 242.859 117.766C235.617 114.356 232.103 111.686 231.996 111.604C229.709 109.816 226.408 110.215 224.613 112.496C222.813 114.783 223.208 118.095 225.494 119.894C225.667 120.03 229.835 123.279 238.369 127.299Z" fill="#050405"/>
<path d="M298.867 181.294C299.292 181.4 299.719 181.449 300.138 181.449C302.503 181.449 304.653 179.846 305.247 177.447C305.947 174.624 304.224 171.767 301.4 171.067C298.019 170.229 288.517 165.383 283.323 162.525C280.773 161.121 277.571 162.053 276.168 164.601C274.765 167.15 275.694 170.354 278.244 171.756C279.742 172.58 293.049 179.853 298.867 181.294Z" fill="#050405"/>
<path d="M145.549 354.306C143.539 352.208 140.208 352.135 138.106 354.142C136.003 356.152 135.928 359.487 137.937 361.591C138.772 362.464 146.334 370.195 154.877 372.785C155.386 372.94 155.901 373.014 156.407 373.014C158.667 373.014 160.757 371.547 161.447 369.273C162.291 366.489 160.718 363.547 157.934 362.702C152.94 361.188 147.3 356.128 145.549 354.306Z" fill="#050405"/>
<path d="M430.257 300.776C427.737 291.879 412.967 245.774 369.567 211.523C369.559 211.518 369.551 211.511 369.544 211.505C369.537 211.5 369.53 211.494 369.523 211.488C369.519 211.485 369.515 211.483 369.511 211.48C364.046 207.115 353.659 204.624 334.559 215.256C338.457 177.467 331.353 145.867 313.86 123.555C297.511 102.7 272.64 90.3629 239.939 86.8852C224.036 85.1978 209.023 87.4545 195.32 93.6014C195.222 93.6451 195.126 93.6923 195.031 93.7421L186.52 98.2015C183.943 99.552 182.949 102.736 184.299 105.313C185.65 107.89 188.832 108.884 191.411 107.534L199.776 103.151C211.719 97.8234 224.855 95.8745 238.824 97.3629C268.587 100.528 291.043 111.527 305.569 130.055C326.738 157.058 326.892 194.299 323.292 220.785C323.218 221.334 323.231 221.874 323.321 222.392C311.448 230.775 298.901 242.193 286.814 255.573C286.664 255.529 286.512 255.489 286.356 255.458C282.598 254.71 275.751 250.332 272.318 247.749C269.993 245.998 266.692 246.462 264.941 248.785C263.19 251.107 263.653 254.41 265.976 256.163C266.842 256.816 273.129 261.483 279.34 264.162C278.109 265.633 276.883 267.118 275.668 268.625C258.881 289.45 245.718 311.232 238.602 329.959C237.733 332.246 236.985 334.413 236.336 336.48C227.454 332.803 222.076 327.114 221.986 327.017C220.018 324.888 216.695 324.745 214.555 326.71C212.41 328.677 212.267 332.009 214.234 334.153C214.511 334.456 221.15 341.606 232.338 346.228C232.816 346.426 233.308 346.546 233.798 346.598C231.526 359.341 234.217 366.604 237.942 370.739C220.983 380.301 201.844 386.302 182.284 388.139C161.763 390.065 142.255 387.334 125.867 380.24C110.467 373.574 90.9345 359.981 85.3355 333.08C74.766 282.296 93.7725 257.236 112.153 233.003C121.321 220.915 129.98 209.498 134.102 195.649C137.654 183.717 143.914 165.954 153.587 149.037L161.276 136.873C162.831 134.414 162.098 131.16 159.639 129.605C157.179 128.051 153.926 128.785 152.371 131.243L144.619 143.505C144.578 143.57 144.539 143.635 144.5 143.702C134.294 161.526 127.721 180.154 124.004 192.643C120.428 204.657 112.331 215.333 103.758 226.636C84.8759 251.531 63.4747 279.749 75.0207 335.227C80.107 359.666 96.6775 379.086 121.681 389.909C136.332 396.251 152.81 399.355 169.788 399.354C195.949 399.353 223.281 391.97 246.882 377.716C262.481 388.801 298.436 412.122 326.96 413.882C331.5 414.162 335.686 414.304 339.59 414.304C367.291 414.304 380.597 407.181 402.439 392.001C417.421 381.587 424.731 360.842 428.224 345.273C432.034 328.295 432.87 309.997 430.257 300.776ZM283.87 275.238C314.893 236.75 344.579 218.244 357.832 218.244C360.002 218.244 361.731 218.74 362.954 219.725C371.646 226.732 361.601 264.005 325.499 308.793C289.398 353.58 255.106 371.311 246.417 364.305C237.725 357.298 247.769 320.025 283.87 275.238ZM417.943 342.966C413.584 362.392 405.943 376.734 396.425 383.349C372.675 399.858 361.356 405.443 327.609 403.366C305.832 402.022 277.732 385.659 261.194 374.729C266.812 373.055 273.551 369.912 281.638 364.648C298.426 353.718 316.917 336.23 333.702 315.405C350.489 294.58 363.652 272.798 370.768 254.071C374.282 244.824 375.921 237.432 376.313 231.512C406.978 261.697 418.033 296.278 420.121 303.648C421.944 310.082 421.627 326.548 417.943 342.966Z" fill="#050405"/>
<path d="M308.949 361.36C306.016 363.79 299.949 367.073 297.859 368.134C295.264 369.449 294.227 372.619 295.542 375.215C296.47 377.046 298.323 378.102 300.245 378.102C301.046 378.102 301.858 377.919 302.622 377.532C303.497 377.088 311.303 373.093 315.671 369.473C317.911 367.616 318.222 364.295 316.366 362.056C314.51 359.814 311.187 359.506 308.949 361.36Z" fill="#050405"/>
<path d="M371.422 365.366C369.123 363.584 365.815 364 364.03 366.298C361.927 369.009 356.71 373.365 354.877 374.814C352.595 376.619 352.208 379.932 354.012 382.214C355.052 383.529 356.592 384.215 358.148 384.215C359.291 384.215 360.444 383.845 361.411 383.08C362.187 382.467 369.09 376.964 372.354 372.758C374.138 370.459 373.721 367.151 371.422 365.366Z" fill="#050405"/>
<path d="M389.911 305.848C387.216 304.748 384.141 306.042 383.043 308.736C380.728 314.416 376.037 318.837 375.99 318.88C373.863 320.856 373.734 324.181 375.706 326.315C376.744 327.439 378.158 328.009 379.577 328.009C380.855 328.009 382.136 327.546 383.15 326.61C383.41 326.369 389.577 320.617 392.799 312.715C393.898 310.021 392.605 306.946 389.911 305.848Z" fill="#050405"/>
</svg>
